<svg xmlns="http://www.w3.org/2000/svg" width="1280" height="360" viewBox="0 0 1280 360" role="img" aria-label="line-mcp: your personal LINE account, inside Claude">
  <defs>
    <linearGradient id="bbg" x1="0" y1="0" x2="1" y2="1">
      <stop offset="0" stop-color="#0B1F14"/>
      <stop offset="1" stop-color="#062B17"/>
    </linearGradient>
    <radialGradient id="glow" cx="0.22" cy="0.5" r="0.5">
      <stop offset="0" stop-color="#17D86B" stop-opacity="0.35"/>
      <stop offset="1" stop-color="#17D86B" stop-opacity="0"/>
    </radialGradient>
    <linearGradient id="lg" x1="0" y1="0" x2="1" y2="1">
      <stop offset="0" stop-color="#17D86B"/>
      <stop offset="1" stop-color="#03A148"/>
    </linearGradient>
  </defs>
  <rect width="1280" height="360" rx="28" fill="url(#bbg)"/>
  <rect width="1280" height="360" rx="28" fill="url(#glow)"/>
  <!-- logo -->
  <g transform="translate(120 72) scale(0.84)">
    <rect width="256" height="256" rx="60" fill="url(#lg)"/>
    <path d="M86 50h84c29.8 0 54 24.2 54 54v26c0 29.8-24.2 54-54 54h-47l-35 26c-4.4 3.3-10.6-.1-10.1-5.6l1.9-22.3C57.4 175.1 32 152.1 32 130v-26c0-29.8 24.2-54 54-54z" fill="#fff"/>
    <g stroke="#06B85A" stroke-width="9" stroke-linecap="round">
      <line x1="92" y1="137" x2="128" y2="97"/><line x1="128" y1="97" x2="164" y2="137"/><line x1="92" y1="137" x2="164" y2="137"/>
    </g>
    <circle cx="128" cy="97" r="17" fill="#06B85A"/><circle cx="92" cy="137" r="17" fill="#06B85A"/>
    <circle cx="164" cy="137" r="17" fill="#fff" stroke="#06B85A" stroke-width="9"/>
  </g>
  <g font-family="-apple-system, BlinkMacSystemFont, 'Segoe UI', Helvetica, Arial, sans-serif">
    <text x="420" y="160" font-size="84" font-weight="800" fill="#FFFFFF" letter-spacing="-2">line-mcp</text>
    <text x="424" y="214" font-size="30" font-weight="500" fill="#B9F5CF">Your personal LINE account, inside Claude.</text>
    <text x="424" y="262" font-size="22" font-weight="500" fill="#6FD89A">Read · search · reply · react · E2EE decrypted · real-time</text>
  </g>
</svg>
